<svg width="1000" height="1000" viewBox="0 0 1000 1000" fill="none" xmlns="http://www.w3.org/2000/svg">
<path d="M877.911 658.826C873.966 658.826 870.421 658.826 867.263 658.43C860.561 658.038 853.858 657.642 847.155 657.642C842.819 657.642 842.819 657.642 842.423 653.301L836.112 581.469L829.805 521.874L825.468 485.17L821.524 453.203L814.425 403.473C812.059 385.715 809.301 368.349 805.752 350.587C805.356 347.827 805.356 347.431 808.514 347.035C820.736 344.667 833.354 343.482 845.972 343.482H850.309C852.279 343.878 853.462 345.063 853.858 347.431L855.437 374.662L866.476 521.874L871.995 589.362L875.545 628.042L877.911 658.826ZM394.483 343.482H401.581C405.13 343.482 405.918 344.667 405.918 348.219L409.075 395.976L416.174 495.035L420.51 546.737L423.664 586.602L429.975 655.273C429.975 658.43 429.579 658.826 426.425 658.826L398.032 657.642C396.062 658.038 394.878 656.854 394.878 654.877L393.695 641.064C392.512 629.227 391.329 617.385 390.542 605.152L384.231 542.793L377.528 486.354L372.796 446.494L367.672 410.182C365.306 394 362.544 377.426 359.786 361.244L357.812 350.195C357.42 348.219 357.812 347.431 359.786 347.035C370.826 345.063 381.473 343.09 394.483 343.482ZM791.164 502.536C801.02 502.536 802.203 502.932 803.782 512.401C805.752 524.243 807.331 536.084 808.514 547.921L812.85 586.206L821.132 667.507C821.524 669.483 821.132 670.271 819.157 670.271L788.402 673.824C785.248 674.216 784.457 673.824 784.065 670.667L766.319 579.893L755.28 519.506L753.701 511.217C753.31 509.641 754.097 508.457 755.676 508.061C767.898 505.301 779.729 503.324 791.164 502.536ZM342.828 502.536C353.475 502.14 354.658 503.324 355.841 513.193C358.603 529.375 360.574 545.161 362.152 561.343L367.276 608.7L370.43 640.672L373.192 666.323C373.192 669.875 372.796 670.667 369.643 671.059L340.466 673.824C337.308 674.216 336.521 673.824 336.125 670.667L312.072 546.737L305.765 511.613C305.37 509.641 306.157 508.457 308.131 508.061C320.354 505.301 331.789 503.324 342.828 502.536ZM493.456 624.882V673.824V675.4C493.852 677.768 492.669 678.952 490.303 678.56H480.838C474.135 678.56 467.433 678.952 460.73 679.348C457.181 679.744 456.785 679.744 456.39 675.4L450.083 604.36L446.929 569.236L442.197 515.562C441.801 511.217 442.593 510.429 446.138 510.033C457.181 508.849 468.22 508.849 479.263 509.245L487.541 510.429C490.698 511.613 491.09 512.009 491.09 515.166L492.273 536.476L492.669 560.159C493.064 581.865 493.456 603.176 493.456 624.882ZM941.001 627.25V673.427V675.796C941.001 677.768 940.213 678.952 938.239 678.56H924.046C918.527 678.56 913.003 678.952 907.879 679.348C904.725 679.744 904.33 679.348 903.934 675.796L895.657 583.441L891.316 537.66L889.741 514.378C889.346 511.217 890.133 510.429 893.291 510.429C906.3 508.849 919.71 508.457 932.719 510.033C937.847 510.429 938.634 512.009 939.03 517.138L940.213 569.628L941.001 627.25ZM779.729 418.471C783.67 418.471 787.219 418.867 789.981 419.259C791.951 419.655 792.738 420.443 793.134 422.419L798.258 477.277C799.441 482.014 798.654 482.802 793.921 482.802L780.516 483.59C777.754 483.986 776.571 484.382 776.571 480.042L771.052 435.441L769.477 422.811C769.081 420.443 769.869 419.259 772.235 418.867L779.729 418.471ZM332.972 418.471C336.125 418.471 339.283 418.867 342.04 419.259C343.619 419.655 344.407 420.443 344.802 422.419L346.377 436.233L350.322 479.25C350.718 482.406 350.718 482.802 347.56 482.802L332.184 483.59C329.031 483.986 328.635 483.59 328.239 480.434L324.69 448.862L321.537 422.419C321.141 420.443 321.932 419.259 323.903 419.259C326.665 418.867 329.818 418.471 332.972 418.471ZM490.303 457.939V485.17C490.698 489.511 489.907 489.511 486.358 489.511C481.234 489.511 476.502 489.119 471.769 488.723C468.616 488.327 468.22 488.327 468.616 485.17L467.433 451.623C467.433 444.126 467.433 436.625 467.037 429.128C466.645 425.576 467.037 425.18 470.586 425.18C476.106 425.18 481.626 425.576 487.149 426.364C490.303 426.364 490.303 427.156 490.303 430.312V457.939ZM938.239 458.331V485.566C938.239 489.119 937.847 489.511 934.298 489.511L919.314 488.723C916.948 488.327 915.765 487.143 916.16 485.17L914.977 428.732C914.977 425.576 915.369 425.18 918.526 425.18C923.65 425.18 928.383 425.576 933.115 425.972C939.03 426.364 938.239 427.548 938.239 431.888V458.331ZM320.749 479.646C321.141 484.382 320.749 485.17 316.017 485.566L306.553 487.935C303.399 489.119 303.003 488.327 302.612 485.566L292.752 429.916C291.569 426.364 292.356 425.576 295.905 425.18L309.706 422.811C312.864 422.419 313.651 422.419 313.651 425.576C314.834 432.284 316.017 438.993 316.804 445.702L320.749 477.277V479.646ZM740.296 425.576C746.211 424.391 752.518 423.603 758.829 422.811C760.8 422.419 761.587 423.603 761.983 425.576L765.136 447.282C766.715 457.939 767.898 468.592 768.294 479.25V482.406C768.686 483.986 767.898 485.17 766.319 485.566L753.701 488.327C751.731 488.723 750.944 487.935 750.548 485.958L740.296 427.156V425.576ZM460.334 468.2C460.334 474.513 459.939 480.434 459.547 485.958C459.547 487.935 458.756 488.723 456.785 489.119L444.563 490.303C442.593 490.695 441.801 489.511 441.801 487.539C441.014 481.618 440.618 476.093 440.226 470.173C439.435 459.515 438.648 448.466 438.252 437.417L437.465 429.524C437.069 427.944 437.86 427.156 439.435 427.156L455.602 425.972C458.364 425.972 459.151 426.364 459.151 429.524L460.334 468.2ZM907.483 461.884C907.879 469.385 907.879 477.277 907.483 484.774C907.879 488.327 907.092 489.119 903.542 489.119L892.499 490.303C890.529 490.695 889.346 489.511 889.346 487.539C888.95 477.673 888.163 467.412 887.375 457.543L885.796 429.916C885.401 427.944 886.192 427.156 887.767 427.156L903.542 425.972C906.3 425.972 906.696 426.364 906.696 429.524C907.483 440.177 907.879 451.231 907.483 461.884ZM305.37 596.467C311.681 603.968 312.864 612.253 310.102 621.33C307.736 630.015 303.399 637.511 297.088 643.828C286.836 654.485 275.01 663.166 261.996 669.875C239.522 681.716 216.256 690.005 191.412 694.346C173.67 697.898 155.924 700.266 138.182 701.451C132.663 701.843 127.143 701.843 121.62 701.843H109.793C106.635 701.843 105.848 701.055 105.452 697.898L102.695 659.614L95.2005 584.233L86.9231 512.401L82.1909 474.121L77.0629 437.417C74.3051 417.287 70.756 397.16 67.2068 377.03C64.445 360.848 61.6872 344.667 58.138 328.489C57.7423 326.512 58.138 324.936 60.1084 324.54L114.917 301.65C118.466 300.069 121.62 298.885 125.169 298.097C127.535 297.701 128.718 298.493 128.322 300.862C128.322 307.174 128.322 313.491 127.931 320.2L127.535 325.328C127.143 348.219 127.143 371.109 127.535 394.396C127.931 414.526 129.114 435.049 130.297 455.175C132.267 486.751 135.421 518.322 138.578 549.502C138.578 552.658 138.97 552.658 142.519 552.266C149.222 551.082 155.533 550.686 162.235 550.686C183.135 550.686 204.03 553.054 224.142 558.182C241.884 562.527 258.843 568.448 275.797 575.945C284.078 579.893 291.569 584.625 298.667 590.154C301.429 592.126 303.399 594.099 305.37 596.467ZM749.761 592.914C758.042 599.623 760.8 608.7 758.434 619.357C756.463 628.042 752.518 635.539 746.603 642.248C737.143 652.905 726.099 661.194 713.877 667.903C690.22 680.928 664.984 690.005 638.169 694.742C623.581 697.502 608.988 699.87 594.4 701.055C586.119 701.843 577.05 702.239 567.981 701.843H557.333C554.971 702.239 553.788 701.055 553.788 698.686C552.997 687.637 552.209 676.584 551.026 665.535L544.715 598.047L538.013 539.24L529.735 472.937C528.552 461.492 526.974 449.65 525.003 438.205L517.905 394C514.751 373.086 510.806 352.167 506.47 331.249L506.074 328.489C505.287 326.512 506.074 324.936 508.045 324.54C527.369 316.647 546.294 307.962 565.615 300.466C570.743 298.493 577.05 296.125 576.658 300.862C575.079 315.463 575.475 330.065 575.079 344.274C574.684 356.112 574.684 367.953 575.475 379.398V388.475C575.475 402.685 575.867 416.895 577.05 430.704C577.841 449.254 579.024 468.2 580.599 486.751L584.148 526.611C584.544 534.108 585.331 541.213 586.514 548.713C586.514 553.054 587.302 552.658 590.851 552.266C597.949 551.082 605.048 550.686 612.146 550.686C636.986 551.082 661.039 555.026 684.696 561.735C700.863 566.079 716.243 571.996 731.227 579.893C737.93 583.441 743.845 587.786 749.761 592.914ZM179.586 662.378C185.501 658.826 195.753 651.721 209.945 640.672C224.142 629.227 232.815 621.726 236.364 617.781C215.073 608.308 192.991 600.019 170.121 592.522L179.586 662.378ZM683.121 619.753C684.305 618.569 683.909 617.781 682.726 616.989L673.261 613.045C656.702 605.94 640.14 599.623 623.185 594.099L620.819 593.31C620.032 592.914 619.244 593.31 618.061 593.707L627.522 661.982C628.705 661.982 629.496 661.586 629.888 661.194C645.268 650.141 660.643 638.696 676.023 626.462L683.121 619.753Z" fill="#5CCBF5"/>
</svg>
